<svg xmlns="http://www.w3.org/2000/svg" width="53" height="53" fill="none"><path fill="#C2F13C" d="M45.372 0a7.679 7.679 0 0 0-6.125 3.082l-8.911 12.682c-.95 1.27-3.023 1.416-4.142.295l-2.503-2.503a5.123 5.123 0 0 0-3.647-1.51h-.338a5.124 5.124 0 0 0-3.647 1.51l-3.66 3.66a1.204 1.204 0 0 0 0 1.704L34.08 40.602a1.2 1.2 0 0 0 1.703 0l3.661-3.66a5.124 5.124 0 0 0 1.51-3.648v-.338a5.124 5.124 0 0 0-1.51-3.647l-2.503-2.503a2.767 2.767 0 0 1-.805-1.943c0-.86.41-1.683 1.07-2.177l12.741-8.955A7.66 7.66 0 0 0 53 7.628C53 3.422 49.578 0 45.372 0zm.4 9.636a2.412 2.412 0 0 1-2.408-2.409 2.412 2.412 0 0 1 2.409-2.409 2.412 2.412 0 0 1 2.409 2.41 2.412 2.412 0 0 1-2.41 2.408zM11.754 21.681a1.204 1.204 0 0 0-1.704 0l-8.638 8.64A4.785 4.785 0 0 0 0 33.726c0 1.287.501 2.496 1.412 3.407l1.85 1.851c.379.38.968.464 1.436.201l4.247-2.358-2.359 4.246a1.205 1.205 0 0 0 .201 1.437l9.08 9.077a4.785 4.785 0 0 0 3.406 1.412 4.786 4.786 0 0 0 3.407-1.412l8.638-8.639c.47-.47.47-1.232 0-1.703L11.754 21.681z"/></svg>