<svg xmlns="http://www.w3.org/2000/svg" width="16" height="16" fill="none"><path fill="#000" d="M9.833 3.99c0-1.866 0-2.798-.348-3.18A1.333 1.333 0 0 0 8.293.392c-.511.08-1.094.808-2.259 2.265l-2.968 3.71c-.888 1.11-1.332 1.665-1.332 2.131 0 .407.184.79.501 1.044.365.291 1.076.291 2.497.291H5.1c.373 0 .56 0 .703.073a.667.667 0 0 1 .291.291c.073.143.073.33.073.703v1.11c0 1.866 0 2.798.348 3.18.302.33.75.488 1.192.418.511-.08 1.094-.809 2.259-2.265l2.968-3.71c.888-1.11 1.332-1.665 1.332-2.132 0-.406-.184-.79-.502-1.043-.364-.291-1.075-.291-2.496-.291H10.9c-.373 0-.56 0-.703-.073a.667.667 0 0 1-.291-.291c-.073-.143-.073-.33-.073-.703V3.99z"/></svg>