<svg xmlns="http://www.w3.org/2000/svg" width="30" height="30" fill="none" id="svg1293510984_1063"><rect width="30" height="30" rx="10" fill="#C2F13C"></rect><path d="M22.724 14.69a9.674 9.674 0 0 0-.913-2.258c-.329-.592-.542-1.247-.558-1.923a3.316 3.316 0 0 1 .32-1.549 3.08 3.08 0 0 1 .3-.492.373.373 0 0 0-.065-.52l-.005-.004a.371.371 0 0 0-.442-.026 4.022 4.022 0 0 1-1.272.554c-1.398.34-2.59-.18-3.114-.462a.282.282 0 0 0-.352.066l-.003.004a.282.282 0 0 0 .032.395c.332.285.8.798.876 1.508.054.503-.11.91-.257 1.222-.71 1.498-2.092 2.969-2.8 3.678a.207.207 0 0 0 .012.306l.003.003c.083.07.206.063.282-.015 2.219-2.25 4.65-3.147 5.996-2.332.09.054.185.12.283.209.387.346.596.85.614 1.37.003.1.004.197.003.297-.031 2.027-1.6 3.738-3.624 3.85-1.805.101-3.764-.629-5.278-2.142-1.309-1.309-2.033-2.951-2.14-4.538-.156-2.328 1.691-4.3 3.975-4.356a.202.202 0 0 0 .192-.239v-.004a.206.206 0 0 0-.164-.162A7.876 7.876 0 0 0 13.101 7c-1.663.024-3.207.595-4.356 1.744-2.754 2.755-2.187 7.789 1.268 11.243 3.455 3.454 8.489 4.023 11.243 1.268 1.648-1.648 2.105-4.111 1.468-6.565Z" fill="#000"></path></svg>