<svg xmlns="http://www.w3.org/2000/svg" width="60" height="61" fill="none"><path fill="#C2F13C" d="m47.082 36.257-6.887-1.931a18.91 18.91 0 0 1-8.204-4.718 18.403 18.403 0 0 1-4.808-8.051l-1.968-6.758a1.294 1.294 0 0 0-.484-.58 1.331 1.331 0 0 0-1.462 0 1.294 1.294 0 0 0-.484.58l-1.968 6.758a18.403 18.403 0 0 1-4.808 8.05 18.91 18.91 0 0 1-8.204 4.719l-6.887 1.93c-.264.074-.497.23-.663.446a1.224 1.224 0 0 0 0 1.494c.166.216.399.372.663.446l6.887 1.93a18.91 18.91 0 0 1 8.204 4.719 18.403 18.403 0 0 1 4.808 8.05l1.968 6.758c.075.26.234.488.453.65a1.279 1.279 0 0 0 1.524 0 1.24 1.24 0 0 0 .453-.65l1.968-6.758a18.403 18.403 0 0 1 4.808-8.05 18.91 18.91 0 0 1 8.204-4.718l6.887-1.931c.264-.074.497-.23.663-.446a1.225 1.225 0 0 0 0-1.494 1.264 1.264 0 0 0-.663-.445zm12.44-24.892-3.587-.986a9.897 9.897 0 0 1-4.273-2.41 9.364 9.364 0 0 1-2.504-4.11L48.133.409A.665.665 0 0 0 47.88.11a.703.703 0 0 0-.762 0 .665.665 0 0 0-.252.297l-1.025 3.45a9.364 9.364 0 0 1-2.504 4.112 9.897 9.897 0 0 1-4.273 2.41l-3.587.985a.66.66 0 0 0-.345.227.618.618 0 0 0 0 .764c.086.11.207.19.345.227l3.587.986a9.897 9.897 0 0 1 4.273 2.41 9.364 9.364 0 0 1 2.504 4.11l1.025 3.45c.04.133.122.25.236.333a.674.674 0 0 0 .794 0 .633.633 0 0 0 .236-.332l1.025-3.45a9.364 9.364 0 0 1 2.504-4.112 9.897 9.897 0 0 1 4.273-2.409l3.587-.986a.659.659 0 0 0 .345-.227.618.618 0 0 0 0-.764.66.66 0 0 0-.345-.227z"/></svg>